<svg xmlns="http://www.w3.org/2000/svg" viewBox="0 0 512 512" role="img" aria-labelledby="title desc">
  <title id="title">남성초 회의실 예약</title>
  <desc id="desc">회의 테이블과 의자를 나타낸 남성초등학교 회의실 예약 시스템 앱 아이콘</desc>
  <rect width="512" height="512" fill="#2563eb"/>
  <circle cx="390" cy="132" r="58" fill="#0f766e"/>
  <path fill="#ffffff" d="m365 132 16 16 34-40c6-7 16-7 22-2 7 6 7 16 2 22l-45 53c-3 4-8 6-13 6s-9-2-12-5l-27-27c-6-6-6-16 0-22 6-7 16-7 23-1Z"/>
  <path fill="#bfdbfe" d="M139 179c0-24 19-43 43-43h148c24 0 43 19 43 43v10H139v-10Z"/>
  <rect x="112" y="202" width="288" height="132" rx="52" fill="#dbeafe"/>
  <rect x="154" y="234" width="204" height="68" rx="34" fill="#ffffff"/>
  <path fill="#1e40af" d="M198 112h116c13 0 24 11 24 24v30H174v-30c0-13 11-24 24-24Z"/>
  <path fill="#bfdbfe" d="M96 220c0-18 14-32 32-32h20v80h-20c-18 0-32-14-32-32v-16Zm268-32h20c18 0 32 14 32 32v16c0 18-14 32-32 32h-20v-80ZM154 358c0-18 14-32 32-32h24v70h-24c-18 0-32-14-32-32v-6Zm148-32h24c18 0 32 14 32 32v6c0 18-14 32-32 32h-24v-70Z"/>
  <path fill="#60a5fa" d="M206 334h100v34H206z"/>
  <path fill="#1e40af" d="M166 286h180c12 0 22 10 22 22s-10 22-22 22H166c-12 0-22-10-22-22s10-22 22-22Z"/>
  <circle cx="208" cy="260" r="16" fill="#2563eb"/>
  <circle cx="256" cy="260" r="16" fill="#2563eb"/>
  <circle cx="304" cy="260" r="16" fill="#2563eb"/>
</svg>
